<svg width="230" height="26" viewBox="0 0 230 26" fill="none" xmlns="http://www.w3.org/2000/svg">
<path d="M0.0160001 26V0.079999H4.012L14.776 12.896L25.54 0.079999H29.536V26H26.62V3.392L14.776 17.468L2.932 3.392V26H0.0160001ZM33.4864 26V0.079999H57.1384V2.996H36.4024V11.564H53.0704V14.516H36.4024V23.084H57.1384V26H33.4864ZM71.2009 26V2.996H59.6809V0.079999H85.6009V2.996H74.1169V26H71.2009ZM88.3653 26V4.4C88.3653 3.608 88.5573 2.888 88.9413 2.24C89.3253 1.568 89.8413 1.04 90.4893 0.655998C91.1613 0.271999 91.8933 0.079999 92.6853 0.079999H109.965C110.757 0.079999 111.477 0.271999 112.125 0.655998C112.797 1.04 113.325 1.568 113.709 2.24C114.093 2.888 114.285 3.608 114.285 4.4V26H111.369V16.532H91.2813V26H88.3653ZM91.2813 13.616H111.369V4.4C111.369 4.016 111.225 3.692 110.937 3.428C110.673 3.14 110.349 2.996 109.965 2.996H92.6853C92.3013 2.996 91.9653 3.14 91.6773 3.428C91.4133 3.692 91.2813 4.016 91.2813 4.4V13.616ZM128.611 26V2.996H117.091V0.079999H143.011V2.996H131.527V26H128.611ZM145.776 26V0.079999H169.428V2.996H148.692V11.564H165.36V14.516H148.692V23.084H169.428V26H145.776ZM177.586 26C176.794 26 176.062 25.808 175.39 25.424C174.742 25.04 174.226 24.524 173.842 23.876C173.458 23.204 173.266 22.472 173.266 21.68V4.4C173.266 3.608 173.458 2.888 173.842 2.24C174.226 1.568 174.742 1.04 175.39 0.655998C176.062 0.271999 176.794 0.079999 177.586 0.079999H199.114V2.996H177.586C177.202 2.996 176.866 3.14 176.578 3.428C176.314 3.692 176.182 4.016 176.182 4.4V21.68C176.182 22.064 176.314 22.4 176.578 22.688C176.866 22.952 177.202 23.084 177.586 23.084H199.114V26H177.586ZM202.904 26V0.079999H205.82V11.564H226.52V0.079999H229.472V26H226.52V14.516H205.82V26H202.904Z" fill="#141414"/>
</svg>
